<svg height="215" preserveAspectRatio="xMidYMid" viewBox="0 0 129 215" width="129" xmlns="http://www.w3.org/2000/svg"><g fill-rule="evenodd"><path d="m128.687 131.754h-24.87c-2.977 0-5.389-2.524-5.389-5.499 0-2.977 2.412-5.5 5.389-5.5h13.87v-46.998h-6.686c-2.976 0-5.388-2.024-5.388-5.002 0-2.975 2.412-4.999 5.388-4.999h17.686z" fill="#142a3b"/><path d="m99.244 160.753h-82.906s-13.072 53.998-13.072 53.998h109.049s-13.071-53.998-13.071-53.998zm-40.438 41.007c-7.366 0-13.339-5.895-13.339-13.164 0-7.27 5.973-13.165 13.339-13.165 7.367 0 13.339 5.895 13.339 13.165 0 7.269-5.972 13.164-13.339 13.164z" fill="#fbb713"/><path d="m112.316 45.757h-109.05s13.072 99.996 13.072 99.996h82.906s13.072-99.996 13.072-99.996z" fill="#ededed"/><path d="m103.572 113.512c-4.63-8.271-9.571-15.94-19.961-18.353-10.87-1.101-24.437 1.482-38.144 4.101-15.547-.332-27.975-6.642-38.19-16.334 0 0 9.061 62.827 9.061 62.827h82.906s4.328-32.241 4.328-32.241z" fill="#ff3a2f"/><path d="m72.145 188.596c0 7.269-5.972 13.163-13.339 13.163s-13.339-5.894-13.339-13.163c0-7.27 5.972-13.163 13.339-13.163s13.339 5.893 13.339 13.163z" fill="#142a3b"/><path d="m110.036 19.839s-108.057 14.485-108.057 14.485-1.979-14.38-1.979-14.38 108.056-14.484 108.056-14.484 1.98 14.379 1.98 14.379z" fill="#fbb713"/><path d="m55.421 175.799c-1.087-.282-2.208-.481-3.386-.481-7.367 0-13.339 5.894-13.339 13.163 0 7.271 5.972 13.165 13.339 13.165 1.178 0 2.299-.198 3.386-.48-5.717-1.488-9.954-6.576-9.954-12.685 0-6.107 4.237-11.196 9.954-12.682z" opacity=".35"/><path d="m99.244 160.292h-6.771s12.282 53.884 12.282 53.884h7.56s-13.071-53.884-13.071-53.884z" opacity=".35"/><path d="m97.466 45.037s-8.444 65.367-8.444 65.367c-1.898 14.699-14.458 25.705-29.333 25.705h-44.658s1.307 10.119 1.307 10.119h82.906s13.072-101.191 13.072-101.191z" opacity=".25"/><path d="m83.611 94.786c-10.87-1.102-24.437 1.611-38.144 4.231-15.547-.333-27.975-7.098-38.19-16.79 0 0 1.822 12.54 1.822 12.54 7.625 4.551 16.275 7.41 26.211 7.622 13.707-2.62 27.274-5.331 38.144-4.231 10.391 2.413 15.331 9.822 19.962 18.092 0 0-4.684 29.674-4.684 29.674h9.696s5.144-33.048 5.144-33.048c-4.63-8.27-9.571-15.678-19.961-18.09z" opacity=".35"/><path d="m108.056 5.347s-6.192.829-6.192.829 1.401 10.177 1.401 10.177-101.864 13.654-101.864 13.654.578 4.204.578 4.204 108.057-14.485 108.057-14.485-1.98-14.379-1.98-14.379z" opacity=".25"/><path d="m37.895 11.133c-1.772 0-3.313-1.311-3.555-3.115-.264-1.967 1.117-3.776 3.083-4.038 0 0 29.363-3.934 29.363-3.934 1.96-.248 3.775 1.115 4.038 3.083.264 1.966-1.117 3.775-3.084 4.038 0 0-29.362 3.933-29.362 3.933-.162.022-.323.033-.483.033z" fill="#142a3b"/><path d="m27.925 122.43c-1.698 0-3.208-1.207-3.529-2.936 0 0-9.311-50.134-9.311-50.134-.361-1.949.926-3.825 2.877-4.188 1.938-.359 3.825.925 4.188 2.877 0 0 9.311 50.133 9.311 50.133.362 1.95-.926 3.826-2.877 4.189-.221.039-.441.059-.659.059z" fill="#fff"/></g></svg>