<svg height="64" preserveAspectRatio="none" viewBox="0 0 64 64" width="64" xmlns="http://www.w3.org/2000/svg" xmlns:xlink="http://www.w3.org/1999/xlink"><linearGradient id="a"><stop offset=".2" stop-color="#9c9c9d"/><stop offset="1" stop-color="#3e3a39"/></linearGradient><linearGradient id="b" gradientUnits="userSpaceOnUse" x1="32" x2="32" xlink:href="#a" y1="11.738281" y2="52.25"/><linearGradient id="c" gradientUnits="userSpaceOnUse" x1="32" x2="32" y1="13.400391" y2="50.587891"><stop offset=".2" stop-color="#fff" stop-opacity=".3"/><stop offset="1" stop-color="#fff" stop-opacity="0"/></linearGradient><linearGradient id="d" gradientUnits="userSpaceOnUse" x1="47" x2="47" xlink:href="#a" y1="11.75" y2="51.75"/><linearGradient id="e" gradientUnits="userSpaceOnUse" x1="44.5" x2="44.5" y1="14.125" y2="48.625"><stop offset="0" stop-color="#868686"/><stop offset="1" stop-color="#231815"/></linearGradient><linearGradient id="f" gradientUnits="userSpaceOnUse" x1="43.25" x2="45.75" y1="31.375" y2="31.375"><stop offset="0" stop-color="#9c9c9d"/><stop offset=".4" stop-color="#c6c7c8"/><stop offset=".6" stop-color="#c6c7c8"/><stop offset="1" stop-color="#9c9c9d"/></linearGradient><linearGradient id="g" gradientUnits="userSpaceOnUse" x1="44.5" x2="44.5" y1="14.833333" y2="47.916668"><stop offset="0" stop-color="#fff" stop-opacity=".3"/><stop offset="1" stop-color="#fff" stop-opacity=".1"/></linearGradient><linearGradient id="h" gradientUnits="userSpaceOnUse" x1="54.5" x2="54.5" y1="39.083332" y2="44.916668"><stop offset=".2" stop-color="#fff" stop-opacity=".4"/><stop offset="1" stop-color="#fff" stop-opacity="0"/></linearGradient><linearGradient id="i" gradientUnits="userSpaceOnUse" x1="54.5" x2="54.5" y1="17.708313" y2="21.791626"><stop offset="0" stop-color="#fff" stop-opacity=".4"/><stop offset="1" stop-color="#fff" stop-opacity=".1"/></linearGradient><path d="m61.75 49.890625c0 1.0269051-.8324699 1.859375-1.859375 1.859375h-55.78125c-1.0269043 0-1.859375-.8324699-1.859375-1.859375v-35.7929687c0-1.0269041.8324707-1.859375 1.859375-1.859375h55.78125c1.0269051 0 1.859375.8324709 1.859375 1.859375z" fill="#ececed"/><path d="m42.3951378 20.25v23h-34.4152765v-23zm4.6048622-3.5h-43.625v30h43.625z" fill="#595757"/><path d="m7.97986 20.25h34.415279v23h-34.415279z" fill="#8bbf1e"/><path d="m42.8955078 43.75h-35.4155273v-24h35.4155273zm-34.4155273-1h33.4155273v-22h-33.4155273z" fill="#231815"/><path d="m59.890625 52.25h-55.78125c-1.3007812 0-2.359375-1.0585937-2.359375-2.359375v-35.7929687c0-1.3007813 1.0585938-2.359375 2.359375-2.359375h55.78125c1.3007813 0 2.359375 1.0585938 2.359375 2.359375v35.7929687c0 1.3007813-1.0585937 2.359375-2.359375 2.359375zm-55.78125-39.5117187c-.7495117 0-1.359375.6098633-1.359375 1.359375v35.7929687c0 .75.6098633 1.359375 1.359375 1.359375h55.78125c.75 0 1.359375-.609375 1.359375-1.359375v-35.7929687c0-.7495117-.609375-1.359375-1.359375-1.359375z" fill="url(#b)"/><path d="m59.5 47.353447c0 .4951515-.3979683.896553-.8888893.896553h-8.2222214c-.490921 0-.8888893-.4014015-.8888893-.896553v-30.7068959c0-.4951515.3979683-.8965511.8888893-.8965511h8.2222214c.490921 0 .8888893.4013996.8888893.8965511z" fill="#b2b2b3"/><path d="m58.25 28.5c0 .5522842-.5372581 1-1.2000008 1h-.5999985c-.6627426 0-1.2000007-.4477158-1.2000007-1v-.5c0-.5522842.5372581-1 1.2000008-1h.5999985c.6627426 0 1.2000007.4477158 1.2000007 1z" fill="#595757"/><path d="m53.75 28.5c0 .5522842-.5372581 1-1.2000008 1h-.5999985c-.6627426 0-1.2000007-.4477158-1.2000007-1v-.5c0-.5522842.5372581-1 1.2000008-1h.5999985c.6627426 0 1.2000007.4477158 1.2000007 1z" fill="#595757"/><path d="m58.25 32.25c0 .5522842-.5372581 1-1.2000008 1h-.5999985c-.6627426 0-1.2000008-.4477158-1.2000008-1v-.5c0-.5522842.5372581-1 1.2000008-1h.5999985c.6627426 0 1.2000008.4477158 1.2000008 1z" fill="#595757"/><path d="m53.75 32.25c0 .5522842-.5372581 1-1.2000008 1h-.5999985c-.6627426 0-1.2000008-.4477158-1.2000008-1v-.5c0-.5522842.5372581-1 1.2000008-1h.5999985c.6627426 0 1.2000008.4477158 1.2000008 1z" fill="#595757"/><path d="m58.25 36c0 .5522842-.5372581 1-1.2000008 1h-.5999985c-.6627426 0-1.2000007-.4477158-1.2000007-1v-.5c0-.5522842.5372581-1 1.2000008-1h.5999985c.6627426 0 1.2000008.4477158 1.2000008 1v.5z" fill="#595757"/><path d="m53.75 36c0 .5522842-.5372581 1-1.2000008 1h-.5999985c-.6627426 0-1.2000007-.4477158-1.2000007-1v-.5c0-.5522842.5372581-1 1.2000008-1h.5999985c.6627426 0 1.2000008.4477158 1.2000008 1v.5z" fill="#595757"/><path d="m60.5878906 49.6582031c0 .5134506-.4162369.9296875-.9296875.9296875h-55.3164062c-.5134523 0-.9296875-.4162369-.9296875-.9296875v-35.328125c0-.5134525.4162352-.9296875.9296875-.9296875h55.3164063c.5134506 0 .9296875.416235.9296875.9296875v35.328125z" fill="url(#c)"/><path d="m57 54.015625 1.25-2.03125h-3.75l1.25 2.03125z" fill="#3e3a39"/><path d="m8.25 54.015625 1.25-2.03125h-3.75l1.25 2.03125z" fill="#3e3a39"/><path d="m46.5 11.75h1v40h-1z" fill="url(#d)"/><path d="m44.75 48.625h-.5c-.7578125 0-1.375-.6171875-1.375-1.375v-31.75c0-.7583008.6171875-1.375 1.375-1.375h.5c.7578125 0 1.375.6166992 1.375 1.375v31.75c0 .7578125-.6171875 1.375-1.375 1.375zm-.5-33.75c-.3447266 0-.625.2802734-.625.625v31.75c0 .3447266.2802734.625.625.625h.5c.3447266 0 .625-.2802734.625-.625v-31.75c0-.3447266-.2802734-.625-.625-.625z" fill="url(#e)"/><path d="m45.75 47.25c0 .5522842-.4477158 1-1 1h-.5c-.5522842 0-1-.4477158-1-1v-31.75c0-.5522852.4477158-1 1-1h.5c.5522842 0 1 .4477148 1 1z" fill="url(#f)"/><path d="m45.1666679 46.9364204c0 .5413742-.238781.9802475-.5333328.9802475h-.2666702c-.2945518 0-.5333328-.4388733-.5333328-.9802475v-31.1228399c0-.5413761.238781-.9802475.5333328-.9802475h.2666702c.2945518 0 .5333328.4388714.5333328.9802475z" fill="url(#g)"/><path d="m58.25 23.5c0 .5522842-.4477158 1-1 1h-5.5c-.5522842 0-1-.4477158-1-1v-5.5c0-.5522842.4477158-1 1-1h5.5c.5522842 0 1 .4477158 1 1z" fill="#231815"/><path d="m57.25 24.875h-5.5c-.7578125 0-1.375-.6166992-1.375-1.375v-5.5c0-.7583008.6171875-1.375 1.375-1.375h5.5c.7578125 0 1.375.6166992 1.375 1.375v5.5c0 .7583008-.6171875 1.375-1.375 1.375zm-5.5-7.5c-.3447266 0-.625.2802734-.625.625v5.5c0 .3447266.2802734.625.625.625h5.5c.3447266 0 .625-.2802734.625-.625v-5.5c0-.3447266-.2802734-.625-.625-.625z" fill="#595757"/><circle cx="54.5" cy="42" fill="#9c9c9d" r="3.75"/><path d="m54.5 46.125c-2.2744141 0-4.125-1.8505859-4.125-4.125s1.8505859-4.125 4.125-4.125 4.125 1.8505859 4.125 4.125-1.8505859 4.125-4.125 4.125zm0-7.5c-1.8613281 0-3.375 1.5136719-3.375 3.375s1.5136719 3.375 3.375 3.375 3.375-1.5136719 3.375-3.375-1.5136719-3.375-3.375-3.375z" fill="#595757"/><circle cx="54.5" cy="42" fill="url(#h)" r="2.916667"/><g fill="#f5f5f5"><path d="m51.9751701 19.795578-.147789.147789v.591156l.147789.1477909.147789-.1477909v-.591156z"/><path d="m52.1229591 19.647789.147789.147789h.443367l.147789-.147789-.147789-.147789h-.443367z"/><path d="m53.0096931 19.795578-.147789.147789v.591156l.147789.1477909.147789-.1477909v-.591156z"/><path d="m52.1229591 20.8301029.147789.147789h.443367l.147789-.147789-.147789-.147789h-.443367z"/><path d="m52.1229591 22.0124149.147789.147789h.443367l.147789-.147789-.147789-.147789h-.443367z"/><path d="m51.9751701 20.9778919-.147789.147789v.591156l.147789.147789.147789-.147789v-.591156z"/><path d="m53.0096931 20.9778919-.147789.147789v.591156l.147789.147789.147789-.147789v-.591156z"/><path d="m53.496346 20.28223h.209005v.209005h-.209005z" transform="matrix(-.7071068 .7071068 -.7071068 -.7071068 105.917969 -3.099192)"/><path d="m53.496346 21.168964h.209005v.209005h-.209005z" transform="matrix(-.7071068 .7071068 -.7071068 -.7071068 106.544983 -1.585442)"/><path d="m54.1920052 19.795578-.147789.147789v.591156l.147789.1477909.147789-.1477909v-.591156z"/><path d="m54.3397942 19.647789.147789.147789h.4433708l.147789-.147789-.147789-.147789h-.4433708z"/><path d="m55.226532 19.795578-.147789.147789v.591156l.147789.1477909.147789-.1477909v-.591156z"/><path d="m54.3397942 20.8301029.147789.147789h.4433708l.147789-.147789-.147789-.147789h-.4433708z"/><path d="m54.3397942 22.0124149.147789.147789h.4433708l.147789-.147789-.147789-.147789h-.4433708z"/><path d="m54.1920052 20.9778919-.147789.147789v.591156l.147789.147789.147789-.147789v-.591156z"/><path d="m55.226532 20.9778919-.147789.147789v.591156l.147789.147789.147789-.147789v-.591156z"/><path d="m55.817688 19.795578-.147789.147789v.591156l.147789.1477909.147789-.1477909v-.591156z"/><path d="m55.965477 19.647789.147789.147789h.443367l.147789-.147789-.147789-.147789h-.443367z"/><path d="m56.852211 19.795578-.147789.147789v.591156l.147789.1477909.147789-.1477909v-.591156z"/><path d="m55.965477 20.8301029.147789.147789h.443367l.147789-.147789-.147789-.147789h-.443367z"/><path d="m55.965477 22.0124149.147789.147789h.443367l.147789-.147789-.147789-.147789h-.443367z"/><path d="m55.817688 20.9778919-.147789.147789v.591156l.147789.147789.147789-.147789v-.591156z"/><path d="m56.852211 20.9778919-.147789.147789v.591156l.147789.147789.147789-.147789v-.591156z"/></g><path d="m56.7305298 17.708313h-4.4610596c-.447998 0-.8111572.3631592-.8111572.8110962v2.4611206c0 .447998 1.0833549.8110962 3.041687.8110962s3.041687-.3630981 3.041687-.8110962v-2.4611206c0-.447937-.3631592-.8110962-.8111572-.8110962z" fill="url(#i)"/></svg>