<svg enable-background="new 0 0 20 20" height="20" viewBox="0 0 20 20" width="20" xmlns="http://www.w3.org/2000/svg"><path d="m0 0h20v20h-20z" fill="none"/><path d="m15.66 13.88c-.14-.21-.33-.4-.54-.54-.32-.21-.71-.34-1.12-.34s-.8.13-1.12.34c-.21.14-.4.33-.54.54-.03.04-.04.08-.06.12h-4.56l1.36-2.09c.3.05.61.09.92.09s.62-.04.92-.09l.78 1.2c.22-.26.47-.49.76-.66l-.54-.83c1.81-.76 3.08-2.54 3.08-4.62h-10c0 2.08 1.27 3.86 3.08 4.62l-3 4.61c-.15.23-.08.54.15.69s.54.08.69-.15l1.15-1.77h4.93c0 1.1.9 2 2 2s2-.9 2-2c0-.41-.13-.8-.34-1.12zm-9.53-5.88h7.75c-.45 1.72-2.01 3-3.87 3-1.87 0-3.44-1.28-3.88-3zm7.87 8c-.55 0-1-.45-1-1s.45-1 1-1 1 .45 1 1-.45 1-1 1z"/><path d="m8.64 6h.51c.09-.69.14-.98-.53-1.77-.25-.31-.41-.47-.28-1.23h-.5c-.13.67.02 1.23.53 1.78.14.14.48.4.27 1.22z"/><path d="m10.14 6h.51c.09-.69.14-.98-.53-1.77-.25-.31-.41-.47-.28-1.23h-.5c-.13.67.02 1.23.53 1.78.14.14.48.4.27 1.22z"/><path d="m11.64 6h.51c.09-.69.14-.98-.53-1.77-.25-.3-.41-.47-.28-1.23h-.5c-.13.67.02 1.23.53 1.78.14.14.48.4.27 1.22z"/></svg>