<svg height="64" viewBox="0 0 64 64" width="64" xmlns="http://www.w3.org/2000/svg"><g fill="none" fill-rule="evenodd"><path d="m8 8.9973917c0-1.10312897.89493844-1.9973917 2.0013893-1.9973917h43.9972214c1.1053368 0 2.0013893.89585781 2.0013893 1.9973917v7.0026083h-48z" fill="#d8d8d8"/><path d="m8 55h48v3c0 1.6568542-1.3338926 3-3.002615 3h-41.99477c-1.65829849 0-3.002615-1.3465171-3.002615-3z" fill="#979797"/><path d="m8 16h48v39h-48z" fill="#595959"/><path d="m13 25h38v26h-38z" fill="#ffdd95"/><g fill="#595959"><circle cx="18.5" cy="11.5" r="2.5"/><circle cx="27.5" cy="11.5" r="2.5"/><circle cx="36.5" cy="11.5" r="2.5"/><circle cx="45.5" cy="11.5" r="2.5"/></g><path d="m13 19h38v3h-38z" fill="#d8d8d8"/></g></svg>