<svg height="64" viewBox="0 0 64 64" width="64" xmlns="http://www.w3.org/2000/svg"><g fill="none" fill-rule="evenodd"><path d="m9 5h47v47h-47z" fill="#d8d8d8"/><circle cx="21" cy="17" r="6" stroke="#979797" stroke-linecap="round" stroke-width="2"/><circle cx="21" cy="17" fill="#979797" r="2"/><path d="m9 52h47v6.0031303c0 1.6551254-1.3433937 2.9968697-2.9936145 2.9968697h-41.012771c-1.6533276 0-2.9936145-1.3473909-2.9936145-2.9968697z" fill="#595959"/><path d="m21 23v3m0-18v3m6 6h3m-18 0h3" stroke="#979797" stroke-linecap="square" stroke-width="2"/><circle cx="21" cy="39" r="6" stroke="#979797" stroke-linecap="round" stroke-width="2"/><circle cx="21" cy="39" fill="#979797" r="2"/><g fill="#80d25b"><circle cx="14.5" cy="56.5" r="2.5"/><circle cx="22.5" cy="56.5" r="2.5"/><circle cx="30.5" cy="56.5" r="2.5"/><circle cx="38.5" cy="56.5" r="2.5"/></g><path d="m21 45v3m0-18v3m6 6h3m-18 0h3" stroke="#979797" stroke-linecap="square" stroke-width="2"/><circle cx="44" cy="17" r="6" stroke="#979797" stroke-linecap="round" stroke-width="2"/><circle cx="44" cy="17" fill="#979797" r="2"/><path d="m44 23v3m0-18v3m6 6h3m-18 0h3" stroke="#979797" stroke-linecap="square" stroke-width="2"/><circle cx="44" cy="39" r="6" stroke="#979797" stroke-linecap="round" stroke-width="2"/><circle cx="44" cy="39" fill="#979797" r="2"/><path d="m44 45v3m0-18v3m6 6h3m-18 0h3" stroke="#979797" stroke-linecap="square" stroke-width="2"/></g></svg>