<svg viewBox="0 0 50 50" xmlns="http://www.w3.org/2000/svg"><path d="m.8125 9c-.476562.089844-.8203125.511719-.8125 1v30c0 .550781.449219 1 1 1h.28125l.78125 2.3125c.132813.40625.511719.683594.9375.6875h3c.425781-.003906.804688-.28125.9375-.6875l.78125-2.3125h34.5625l.78125 2.3125c.132813.40625.511719.683594.9375.6875h3c.425781-.003906.804688-.28125.9375-.6875l.78125-2.3125h.28125c.550781 0 1-.449219 1-1v-30c0-.550781-.449219-1-1-1h-48c-.03125 0-.0625 0-.09375 0s-.0625 0-.09375 0zm1.1875 2h46v28h-46zm2.8125 2c-.476562.089844-.820312.511719-.8125 1v22c0 .550781.449219 1 1 1h34c.550781 0 1-.449219 1-1v-22c0-.550781-.449219-1-1-1h-34c-.03125 0-.0625 0-.09375 0s-.0625 0-.09375 0zm39.1875 0c-1.105469 0-2 .894531-2 2s.894531 2 2 2 2-.894531 2-2-.894531-2-2-2zm-38 2h32v7h-2c-.550781 0-1 .449219-1 1v2c0 .554688-.445312 1-1 1h-1v-3h-2v3h-2v-3h-2v3h-2v-3h-2v3h-2v-3h-2v3h-2v-3h-2v3h-2v-3h-2v3h-1c-.554687 0-1-.445312-1-1v-2c0-.550781-.449219-1-1-1h-2zm38 4c-1.105469 0-2 .894531-2 2s.894531 2 2 2 2-.894531 2-2-.894531-2-2-2zm-38 5h1v1c0 1.644531 1.355469 3 3 3h24c1.644531 0 3-1.355469 3-3v-1h1v11h-32zm38 1c-1.105469 0-2 .894531-2 2s.894531 2 2 2 2-.894531 2-2-.894531-2-2-2zm-40.625 16h2.25l-.34375 1h-1.5625zm41 0h2.25l-.34375 1h-1.5625z"/></svg>